<mxfile host="app.diagrams.net" agent="Mozilla/5.0 (Windows NT 10.0; Win64; x64) AppleWebKit/537.36 (KHTML, like Gecko) Chrome/128.0.0.0 Safari/537.36 OPR/114.0.0.0" version="24.8.4">
  <diagram name="Pagina-1" id="MnOrgUKxcZmrHqnSYm2L">
    <mxGraphModel grid="1" page="1" gridSize="10" guides="1" tooltips="1" connect="1" arrows="1" fold="1" pageScale="1" pageWidth="827" pageHeight="1169" math="0" shadow="0">
      <root>
        <mxCell id="0" />
        <mxCell id="1" parent="0" />
        <mxCell id="gYRqYViZla2hqW1DF7L--7" style="edgeStyle=orthogonalEdgeStyle;rounded=0;orthogonalLoop=1;jettySize=auto;html=1;exitX=0.5;exitY=1;exitDx=0;exitDy=0;entryX=0.5;entryY=0;entryDx=0;entryDy=0;strokeColor=#FF5757;" edge="1" parent="1" source="gYRqYViZla2hqW1DF7L--24" target="gYRqYViZla2hqW1DF7L--6">
          <mxGeometry relative="1" as="geometry" />
        </mxCell>
        <mxCell id="gYRqYViZla2hqW1DF7L--1" value="Inizio" style="ellipse;whiteSpace=wrap;html=1;" vertex="1" parent="1">
          <mxGeometry x="354" y="-170" width="120" height="80" as="geometry" />
        </mxCell>
        <mxCell id="gYRqYViZla2hqW1DF7L--2" value="Fine" style="ellipse;whiteSpace=wrap;html=1;" vertex="1" parent="1">
          <mxGeometry x="354" y="460" width="120" height="80" as="geometry" />
        </mxCell>
        <mxCell id="gYRqYViZla2hqW1DF7L--4" style="edgeStyle=orthogonalEdgeStyle;rounded=0;orthogonalLoop=1;jettySize=auto;html=1;exitX=0.5;exitY=1;exitDx=0;exitDy=0;entryX=0.5;entryY=0;entryDx=0;entryDy=0;" edge="1" parent="1">
          <mxGeometry relative="1" as="geometry">
            <mxPoint x="415" y="400" as="sourcePoint" />
            <mxPoint x="414" y="460" as="targetPoint" />
            <Array as="points">
              <mxPoint x="416" y="400" />
              <mxPoint x="416" y="431" />
              <mxPoint x="414" y="431" />
            </Array>
          </mxGeometry>
        </mxCell>
        <mxCell id="gYRqYViZla2hqW1DF7L--5" value="guardo" style="rounded=0;whiteSpace=wrap;html=1;" vertex="1" parent="1">
          <mxGeometry x="354" y="340" width="120" height="60" as="geometry" />
        </mxCell>
        <mxCell id="gYRqYViZla2hqW1DF7L--9" style="edgeStyle=orthogonalEdgeStyle;rounded=0;orthogonalLoop=1;jettySize=auto;html=1;exitX=0.5;exitY=1;exitDx=0;exitDy=0;" edge="1" parent="1" source="gYRqYViZla2hqW1DF7L--6" target="gYRqYViZla2hqW1DF7L--8">
          <mxGeometry relative="1" as="geometry" />
        </mxCell>
        <mxCell id="gYRqYViZla2hqW1DF7L--6" value="Aprire netflix" style="rounded=0;whiteSpace=wrap;html=1;" vertex="1" parent="1">
          <mxGeometry x="354" y="40" width="120" height="60" as="geometry" />
        </mxCell>
        <mxCell id="gYRqYViZla2hqW1DF7L--11" value="" style="edgeStyle=orthogonalEdgeStyle;rounded=0;orthogonalLoop=1;jettySize=auto;html=1;fillColor=#008a00;strokeColor=#005700;" edge="1" parent="1" source="gYRqYViZla2hqW1DF7L--8" target="gYRqYViZla2hqW1DF7L--10">
          <mxGeometry relative="1" as="geometry" />
        </mxCell>
        <mxCell id="gYRqYViZla2hqW1DF7L--13" value="" style="edgeStyle=orthogonalEdgeStyle;rounded=0;orthogonalLoop=1;jettySize=auto;html=1;strokeColor=#FF5454;" edge="1" parent="1" source="gYRqYViZla2hqW1DF7L--8" target="gYRqYViZla2hqW1DF7L--12">
          <mxGeometry relative="1" as="geometry" />
        </mxCell>
        <mxCell id="gYRqYViZla2hqW1DF7L--8" value="tempo&lt;div&gt;&amp;gt;&lt;/div&gt;&lt;div&gt;1.30H&lt;/div&gt;" style="rhombus;whiteSpace=wrap;html=1;" vertex="1" parent="1">
          <mxGeometry x="346" y="130" width="136" height="80" as="geometry" />
        </mxCell>
        <mxCell id="gYRqYViZla2hqW1DF7L--16" style="edgeStyle=orthogonalEdgeStyle;rounded=0;orthogonalLoop=1;jettySize=auto;html=1;exitX=0.5;exitY=1;exitDx=0;exitDy=0;entryX=1;entryY=0.5;entryDx=0;entryDy=0;fillColor=#008a00;strokeColor=#005700;" edge="1" parent="1" source="gYRqYViZla2hqW1DF7L--20" target="gYRqYViZla2hqW1DF7L--5">
          <mxGeometry relative="1" as="geometry">
            <mxPoint x="482" y="445" as="targetPoint" />
          </mxGeometry>
        </mxCell>
        <mxCell id="gYRqYViZla2hqW1DF7L--10" value="scelta film" style="whiteSpace=wrap;html=1;" vertex="1" parent="1">
          <mxGeometry x="570" y="170" width="120" height="60" as="geometry" />
        </mxCell>
        <mxCell id="gYRqYViZla2hqW1DF7L--15" style="edgeStyle=orthogonalEdgeStyle;rounded=0;orthogonalLoop=1;jettySize=auto;html=1;exitX=0.5;exitY=1;exitDx=0;exitDy=0;entryX=0;entryY=0.5;entryDx=0;entryDy=0;fillColor=#008a00;strokeColor=#005700;" edge="1" parent="1" source="gYRqYViZla2hqW1DF7L--18" target="gYRqYViZla2hqW1DF7L--5">
          <mxGeometry relative="1" as="geometry">
            <mxPoint x="346" y="445" as="targetPoint" />
          </mxGeometry>
        </mxCell>
        <mxCell id="gYRqYViZla2hqW1DF7L--12" value="scelta serie" style="whiteSpace=wrap;html=1;" vertex="1" parent="1">
          <mxGeometry x="138" y="170" width="120" height="60" as="geometry" />
        </mxCell>
        <mxCell id="gYRqYViZla2hqW1DF7L--19" value="" style="edgeStyle=orthogonalEdgeStyle;rounded=0;orthogonalLoop=1;jettySize=auto;html=1;exitX=0.5;exitY=1;exitDx=0;exitDy=0;entryX=0;entryY=0.5;entryDx=0;entryDy=0;" edge="1" parent="1" source="gYRqYViZla2hqW1DF7L--12" target="gYRqYViZla2hqW1DF7L--18">
          <mxGeometry relative="1" as="geometry">
            <mxPoint x="198" y="230" as="sourcePoint" />
            <mxPoint x="354" y="460" as="targetPoint" />
            <Array as="points">
              <mxPoint x="198" y="250" />
              <mxPoint x="138" y="250" />
              <mxPoint x="138" y="340" />
            </Array>
          </mxGeometry>
        </mxCell>
        <mxCell id="gYRqYViZla2hqW1DF7L--22" style="edgeStyle=orthogonalEdgeStyle;rounded=0;orthogonalLoop=1;jettySize=auto;html=1;exitX=1;exitY=0.5;exitDx=0;exitDy=0;entryX=0.75;entryY=1;entryDx=0;entryDy=0;strokeColor=#FF5959;" edge="1" parent="1" source="gYRqYViZla2hqW1DF7L--18" target="gYRqYViZla2hqW1DF7L--12">
          <mxGeometry relative="1" as="geometry" />
        </mxCell>
        <mxCell id="gYRqYViZla2hqW1DF7L--18" value="mi piace?" style="rhombus;whiteSpace=wrap;html=1;" vertex="1" parent="1">
          <mxGeometry x="158" y="300" width="80" height="80" as="geometry" />
        </mxCell>
        <mxCell id="gYRqYViZla2hqW1DF7L--21" value="" style="edgeStyle=orthogonalEdgeStyle;rounded=0;orthogonalLoop=1;jettySize=auto;html=1;exitX=0.5;exitY=1;exitDx=0;exitDy=0;entryX=1;entryY=0.5;entryDx=0;entryDy=0;" edge="1" parent="1" source="gYRqYViZla2hqW1DF7L--10" target="gYRqYViZla2hqW1DF7L--20">
          <mxGeometry relative="1" as="geometry">
            <mxPoint x="630" y="230" as="sourcePoint" />
            <mxPoint x="474" y="460" as="targetPoint" />
          </mxGeometry>
        </mxCell>
        <mxCell id="gYRqYViZla2hqW1DF7L--20" value="mi piace?" style="rhombus;whiteSpace=wrap;html=1;" vertex="1" parent="1">
          <mxGeometry x="590" y="290" width="80" height="80" as="geometry" />
        </mxCell>
        <mxCell id="gYRqYViZla2hqW1DF7L--23" style="edgeStyle=orthogonalEdgeStyle;rounded=0;orthogonalLoop=1;jettySize=auto;html=1;exitX=0;exitY=0.5;exitDx=0;exitDy=0;entryX=0.144;entryY=1.05;entryDx=0;entryDy=0;entryPerimeter=0;strokeColor=#FF5252;" edge="1" parent="1" source="gYRqYViZla2hqW1DF7L--20" target="gYRqYViZla2hqW1DF7L--10">
          <mxGeometry relative="1" as="geometry" />
        </mxCell>
        <mxCell id="gYRqYViZla2hqW1DF7L--25" value="" style="edgeStyle=orthogonalEdgeStyle;rounded=0;orthogonalLoop=1;jettySize=auto;html=1;exitX=0.5;exitY=1;exitDx=0;exitDy=0;entryX=0.5;entryY=0;entryDx=0;entryDy=0;" edge="1" parent="1" source="gYRqYViZla2hqW1DF7L--1" target="gYRqYViZla2hqW1DF7L--24">
          <mxGeometry relative="1" as="geometry">
            <mxPoint x="414" y="-50" as="sourcePoint" />
            <mxPoint x="414" y="40" as="targetPoint" />
          </mxGeometry>
        </mxCell>
        <mxCell id="gYRqYViZla2hqW1DF7L--26" style="edgeStyle=orthogonalEdgeStyle;rounded=0;orthogonalLoop=1;jettySize=auto;html=1;exitX=1;exitY=0.5;exitDx=0;exitDy=0;entryX=1;entryY=0.5;entryDx=0;entryDy=0;fillColor=#008a00;strokeColor=#005700;" edge="1" parent="1" source="gYRqYViZla2hqW1DF7L--24" target="gYRqYViZla2hqW1DF7L--2">
          <mxGeometry relative="1" as="geometry">
            <Array as="points">
              <mxPoint x="760" y="-20" />
              <mxPoint x="760" y="500" />
            </Array>
          </mxGeometry>
        </mxCell>
        <mxCell id="gYRqYViZla2hqW1DF7L--24" value="Ho sonno?" style="rhombus;whiteSpace=wrap;html=1;" vertex="1" parent="1">
          <mxGeometry x="371" y="-60" width="86" height="80" as="geometry" />
        </mxCell>
      </root>
    </mxGraphModel>
  </diagram>
</mxfile>
